<?xml version="1.0" encoding="UTF-8"?>
<!DOCTYPE svg PUBLIC "-//W3C//DTD SVG 1.1//EN" "http://www.w3.org/Graphics/SVG/1.1/DTD/svg11.dtd">
<!-- Creator: CorelDRAW 2020 (64-Bit) -->
<svg xmlns="http://www.w3.org/2000/svg" xml:space="preserve" width="200mm" height="200mm" version="1.1" style="shape-rendering:geometricPrecision; text-rendering:geometricPrecision; image-rendering:optimizeQuality; fill-rule:evenodd; clip-rule:evenodd"
viewBox="0 0 20000 20000"
 xmlns:xlink="http://www.w3.org/1999/xlink"
 xmlns:xodm="http://www.corel.com/coreldraw/odm/2003">
 <defs>
  <style type="text/css">
   <![CDATA[
    .fil2 {fill:white}
    .fil0 {fill:black;fill-rule:nonzero}
    .fil1 {fill:url(#id0)}
   ]]>
  </style>
  <linearGradient id="id0" gradientUnits="userSpaceOnUse" x1="2882.36" y1="4379.04" x2="15617.49" y2="13694.54">
   <stop offset="0" style="stop-opacity:1; stop-color:#2E4C6D"/>
   <stop offset="1" style="stop-opacity:1; stop-color:#009DAE"/>
  </linearGradient>
 </defs>
 <g id="Layer_x0020_1">
  <metadata id="CorelCorpID_0Corel-Layer"/>
  <g id="_2358438298768">
   <path class="fil0" d="M3494.79 12796.18c-389.91,-358.46 -955.9,-547.13 -1459.01,-547.13 -830.13,0 -1723.15,408.78 -1723.15,1396.13 0,804.97 572.29,1094.26 1138.28,1276.64 584.87,188.66 924.47,295.57 924.47,635.17 0,358.46 -289.29,484.24 -616.31,484.24 -352.18,0 -748.38,-201.24 -962.2,-471.66l-704.35 716.93c389.91,408.77 1031.37,641.46 1666.55,641.46 880.44,0 1704.28,-459.09 1704.28,-1484.17 0,-886.73 -779.82,-1144.57 -1383.55,-1339.52 -421.35,-132.07 -685.49,-226.4 -685.49,-521.98 0,-352.17 345.89,-446.51 622.6,-446.51 276.71,0 610.02,150.94 792.4,383.62l685.48 -723.22z"/>
   <path id="1" class="fil0" d="M4947.51 14890.37c25.16,-320.73 314.45,-597.44 710.64,-597.44 408.78,0 616.31,270.42 616.31,597.44l-1326.95 0zm2276.57 396.2c0,-1069.11 -647.75,-1704.28 -1572.21,-1704.28 -949.62,0 -1691.7,654.04 -1691.7,1679.12 0,1056.53 779.81,1653.97 1723.14,1653.97 635.17,0 1125.7,-238.97 1421.28,-666.62l-716.93 -452.79c-138.35,188.66 -364.75,327.02 -691.77,327.02 -371.04,0 -716.93,-245.27 -748.38,-591.16l2270.28 0c6.29,-75.46 6.29,-163.51 6.29,-245.26z"/>
   <path id="2" class="fil0" d="M10959.65 16814.76l0 -1936.97c0,-628.88 -301.86,-1282.92 -1144.57,-1282.92 -433.93,0 -792.4,245.26 -937.04,521.97l-12.58 0 0 -433.93 -999.92 0 0 3131.85 1037.66 0 0 -1697.99c0,-358.46 188.66,-672.91 553.42,-672.91 371.04,0 465.37,314.45 465.37,660.33l0 1710.57 1037.66 0z"/>
   <path id="3" class="fil0" d="M13594.68 14456.44l0 -773.53 -735.8 0 0 -823.84 -1012.5 0 0 823.84 -496.82 0 0 773.53 503.11 0 0 1320.66c0,666.62 276.71,1113.13 1113.12,1113.13 220.11,0 459.09,-44.03 597.44,-94.34l-12.57 -754.66c-75.47,31.45 -201.25,50.31 -301.87,50.31 -295.58,0 -389.91,-150.93 -389.91,-440.22l0 -1194.88 735.8 0z"/>
   <path id="4" class="fil0" d="M14909.04 14890.37c25.16,-320.73 314.45,-597.44 710.64,-597.44 408.78,0 616.31,270.42 616.31,597.44l-1326.95 0zm2276.57 396.2c0,-1069.11 -647.75,-1704.28 -1572.21,-1704.28 -949.62,0 -1691.7,654.04 -1691.7,1679.12 0,1056.53 779.81,1653.97 1723.14,1653.97 635.17,0 1125.7,-238.97 1421.28,-666.62l-716.93 -452.79c-138.35,188.66 -364.75,327.02 -691.77,327.02 -371.04,0 -716.93,-245.27 -748.38,-591.16l2270.28 0c6.29,-75.46 6.29,-163.51 6.29,-245.26z"/>
   <path id="5" class="fil0" d="M19902.39 13620.02c-50.31,-18.86 -138.36,-25.15 -220.11,-25.15 -383.62,0 -691.78,226.4 -849,540.84l-12.58 0 0 -452.8 -993.63 0 0 3131.85 1031.37 0 0 -1609.95c0,-257.84 182.37,-710.64 735.79,-710.64 81.76,0 169.8,6.29 264.14,31.45l44.02 -905.6z"/>
   <path class="fil1" d="M7619.7 3077.08c-2302.12,0 -4168.44,1866.33 -4168.44,4168.44 0,2108.25 1565.27,3850.68 3597.01,4129.3l7178.58 1091.97 896.54 102.5 -3732.42 -7101.25c-667.25,-1413 -2104.98,-2390.96 -3771.27,-2390.96z"/>
   <polygon class="fil0" points="15705.05,13337.5 15051.01,12431.9 14007.06,12431.9 14925.24,13337.5 "/>
   <path class="fil2" d="M5727.28 7640.81c-863.68,-113.15 -1378.43,-201.7 -2063.84,-586.1 -399.74,-224.19 -833.39,-534.59 -1140.06,-852.53l-314.79 -344.67c-203.6,160.55 -301.97,896.34 -180.48,1303.86 66.28,222.31 146.71,390.71 264.04,556.23 201.59,284.41 248.74,253.21 375.02,379.7 27.22,27.27 11.65,7.11 34.57,38.77 -408.5,-27.52 -446.61,-98.74 -741.21,-205.49 -34.36,420.81 197.78,901.43 394.78,1120 183.83,203.96 384.82,371.59 650.02,479.3 88.92,36.12 222.47,62.18 294.58,108.38 -318.98,56.41 -422.89,49.24 -736.37,23.41 58.96,425.73 564.87,898.56 990.24,1069.41 83.89,33.69 176.14,61.74 270.81,81.76 50.54,10.69 97.25,17.91 147.97,24.43 9.93,1.28 69.33,9.32 75.08,10.93 155.53,43.53 -106.55,-45.04 35.78,13.06 5.32,2.17 12.62,6.91 16.87,8.85 4.28,1.97 11.76,5.47 16.65,9.6 -419.75,356.93 -1116.39,622.83 -1710.41,685.34 -283.36,29.82 -502.19,-2.97 -766.32,5.79 79.03,76.39 388.12,232.02 516.16,292.16 1524.63,716.07 3276.03,609.61 4675.54,-234.97 1235.56,-745.64 2088.19,-2159.31 2265.83,-3606.01 33.73,-274.7 14.03,-536.65 39.74,-796.44l235.1 -188.89c141.63,-113.36 385.96,-388.89 501.14,-539.35l91.36 -147.89c-292.04,90.45 -559.47,218.01 -903.89,242.24l38.93 -43.9c152.65,-146.48 146.58,-59.55 364.28,-350.2 115.19,-153.79 222.22,-309.1 282.36,-526.35 -96.74,29 -345.34,182.04 -622.88,274.62 -511.48,170.63 -440.44,131.03 -611.57,-19.22 -883.16,-775.39 -2446.75,-382.56 -2765.92,893.52 -93.55,373.98 -20.25,487.39 -19.11,820.65z"/>
  </g>
 </g>
</svg>
